<?xml version='1.0' encoding='utf-8'?>
<svg xmlns="http://www.w3.org/2000/svg" version="1.1" id="Layer_1" x="0px" y="0px" width="429.07px" height="381.396px" viewBox="0 0 429.07 381.396" enable-background="new 0 0 429.07 381.396"> <path fill="#160A11" stroke="#231F20" stroke-miterlimit="10" d="M409.754,106.215c0,37.409-30.328,67.737-67.737,67.737 c-14.613,0-28.144-4.633-39.207-12.5c14.551,19.011,23.193,42.774,23.193,68.569c0,62.354-50.541,112.896-112.896,112.896 c-62.346,0-112.887-50.541-112.887-112.896c0-24.25,7.641-46.712,20.656-65.109c-9.953,5.753-21.504,9.04-33.824,9.04 c-37.409,0-67.738-30.328-67.738-67.737s30.329-67.738,67.738-67.738c37.409,0,67.737,30.329,67.737,67.738 c0,11.886-3.062,23.058-8.454,32.767c18.696-13.737,41.79-21.857,66.771-21.857c27.438,0,52.582,9.781,72.146,26.056 c-6.937-10.63-10.975-23.329-10.975-36.966c0-37.409,30.329-67.738,67.738-67.738S409.754,68.806,409.754,106.215z"/> <ellipse fill="#0B0E18" stroke="#231F20" stroke-miterlimit="10" cx="213.112" cy="286.923" rx="105.671" ry="55.996"/> <path fill="#FDFCF3" stroke="#231F20" stroke-miterlimit="10" d="M307.615,269.905c3.434,5.338,5.293,11.063,5.293,17.016 c0,29.181-44.679,52.835-99.8,52.835c-55.111,0-99.8-23.654-99.8-52.835c0-5.907,1.833-11.588,5.211-16.898 c-6.945-12.446-11.082-28.079-11.082-45.041c0-40.651,23.744-73.608,53.034-73.608c25.677,0,47.101,25.343,51.978,59.004 c4.949-33.661,26.635-59.004,52.637-59.004c29.66,0,53.692,32.957,53.692,73.608C318.778,241.889,314.624,257.478,307.615,269.905z"/> <ellipse fill="#160A0B" stroke="#231F20" stroke-miterlimit="10" cx="213.108" cy="272.924" rx="21.01" ry="13.999"/> <linearGradient id="SVGID_1_" gradientUnits="userSpaceOnUse" x1="143.5015" y1="225.1123" x2="166.0806" y2="225.1123"> <stop offset="0" style="stop-color:#231F20"/> <stop offset="0.3556" style="stop-color:#343334"/> <stop offset="0.5803" style="stop-color:#302D2F"/> <stop offset="0.663" style="stop-color:#4A4A4C"/> <stop offset="0.7487" style="stop-color:#4D4D4F"/> <stop offset="0.8284" style="stop-color:#616264"/> <stop offset="0.9065" style="stop-color:#96989A"/> <stop offset="0.9814" style="stop-color:#FFFFFF"/> </linearGradient> <ellipse fill="url(#SVGID_1_)" stroke="#231F20" stroke-miterlimit="10" cx="154.791" cy="225.112" rx="11.29" ry="20.452"/> <linearGradient id="SVGID_2_" gradientUnits="userSpaceOnUse" x1="262.9897" y1="225.1123" x2="285.5669" y2="225.1123"> <stop offset="0.1255" style="stop-color:#231F20"/> <stop offset="0.456" style="stop-color:#343334"/> <stop offset="0.5803" style="stop-color:#302D2F"/> <stop offset="0.663" style="stop-color:#4A4A4C"/> <stop offset="0.7487" style="stop-color:#4D4D4F"/> <stop offset="0.8284" style="stop-color:#616264"/> <stop offset="0.9065" style="stop-color:#96989A"/> <stop offset="0.9814" style="stop-color:#FFFFFF"/> </linearGradient> <ellipse fill="url(#SVGID_2_)" stroke="#231F20" stroke-miterlimit="10" cx="274.278" cy="225.112" rx="11.289" ry="20.452"/> <g> <g> <path fill="#231F20" d="M173.923,303.658c16.583,26.375,69.078,30.489,78.63-4.21c0.856-3.114-3.967-4.435-4.822-1.33 c-8.357,30.365-55.193,25.756-69.49,3.017C176.529,298.413,172.202,300.92,173.923,303.658L173.923,303.658z"/> </g> </g> </svg>